<svg xmlns="http://www.w3.org/2000/svg" xmlns:xlink="http://www.w3.org/1999/xlink" preserveAspectRatio="xMidYMid" width="1615" height="745" viewBox="152.5 167.5 1615 745">
  <defs>
    <style>
      .cls-1 {
        fill: #353535;
      }

      .cls-1, .cls-2 {
        fill-rule: evenodd;
      }

      .cls-2 {
        fill: maroon;
      }
    </style>
  </defs>
  <path d="M392.000,508.000 L392.000,348.000 L391.924,348.000 C391.974,347.006 392.000,346.006 392.000,345.000 C392.000,312.415 365.585,286.000 333.000,286.000 C300.415,286.000 274.000,312.415 274.000,345.000 C274.000,346.006 274.026,347.006 274.076,348.000 L274.000,348.000 L274.000,508.000 L168.000,508.000 L168.000,343.000 L168.025,343.000 C169.098,252.796 242.542,180.000 333.000,180.000 L498.000,180.000 L498.000,343.000 L498.000,345.000 L498.000,508.000 L392.000,508.000 Z" class="cls-1"/>
  <path d="M1301.000,503.000 L1301.000,343.000 L1300.924,343.000 C1300.974,342.006 1301.000,341.006 1301.000,340.000 C1301.000,307.415 1274.585,281.000 1242.000,281.000 C1212.733,281.000 1188.457,302.314 1183.814,330.264 C1183.902,332.167 1183.950,334.081 1183.975,336.000 L1184.000,336.000 L1184.000,501.000 L1183.000,501.000 L1183.000,503.000 L1078.000,503.000 L1078.000,341.000 L1077.924,341.000 C1077.974,340.006 1078.000,339.006 1078.000,338.000 C1078.000,305.415 1051.585,279.000 1019.000,279.000 C986.415,279.000 960.000,305.415 960.000,338.000 C960.000,339.006 960.026,340.006 960.076,341.000 L960.000,341.000 L960.000,501.000 L854.000,501.000 L854.000,336.000 L854.025,336.000 C855.098,245.796 928.542,173.000 1019.000,173.000 C1062.524,173.000 1102.104,189.860 1131.587,217.395 C1160.825,191.042 1199.537,175.000 1242.000,175.000 C1332.458,175.000 1405.902,247.796 1406.975,338.000 L1407.000,338.000 L1407.000,503.000 L1301.000,503.000 Z" class="cls-1"/>
  <path d="M678.000,507.000 C587.425,507.000 514.000,433.575 514.000,343.000 C514.000,252.425 587.425,179.000 678.000,179.000 C768.575,179.000 842.000,252.425 842.000,343.000 C842.000,433.575 768.575,507.000 678.000,507.000 ZM679.006,281.031 C646.421,281.031 620.006,307.446 620.006,340.031 C620.006,372.616 646.421,399.031 679.006,399.031 C711.591,399.031 738.006,372.616 738.006,340.031 C738.006,307.446 711.591,281.031 679.006,281.031 Z" class="cls-1"/>
  <path d="M738.000,847.000 L738.000,687.000 L737.924,687.000 C737.974,686.006 738.000,685.006 738.000,684.000 C738.000,651.415 711.585,625.000 679.000,625.000 C646.415,625.000 620.000,651.415 620.000,684.000 C620.000,685.006 620.026,686.006 620.076,687.000 L620.000,687.000 L620.000,847.000 L514.000,847.000 L514.000,682.000 L514.025,682.000 C515.098,591.796 588.542,519.000 679.000,519.000 L844.000,519.000 L844.000,682.000 L844.000,684.000 L844.000,847.000 L738.000,847.000 Z" class="cls-2"/>
  <path d="M1647.000,842.000 L1647.000,682.000 L1646.924,682.000 C1646.974,681.006 1647.000,680.006 1647.000,679.000 C1647.000,646.415 1620.585,620.000 1588.000,620.000 C1558.733,620.000 1534.457,641.314 1529.814,669.264 C1529.902,671.167 1529.950,673.081 1529.975,675.000 L1530.000,675.000 L1530.000,840.000 L1529.000,840.000 L1529.000,842.000 L1424.000,842.000 L1424.000,680.000 L1423.924,680.000 C1423.974,679.006 1424.000,678.006 1424.000,677.000 C1424.000,644.415 1397.585,618.000 1365.000,618.000 C1332.415,618.000 1306.000,644.415 1306.000,677.000 C1306.000,678.006 1306.026,679.006 1306.076,680.000 L1306.000,680.000 L1306.000,840.000 L1200.000,840.000 L1200.000,675.000 L1200.025,675.000 C1201.098,584.796 1274.542,512.000 1365.000,512.000 C1408.524,512.000 1448.104,528.860 1477.587,556.395 C1506.825,530.042 1545.537,514.000 1588.000,514.000 C1678.458,514.000 1751.901,586.796 1752.975,677.000 L1753.000,677.000 L1753.000,842.000 L1647.000,842.000 Z" class="cls-2"/>
  <path d="M1024.000,846.000 C933.425,846.000 860.000,772.575 860.000,682.000 C860.000,591.425 933.425,518.000 1024.000,518.000 C1114.575,518.000 1188.000,591.425 1188.000,682.000 C1188.000,772.575 1114.575,846.000 1024.000,846.000 ZM1025.006,620.031 C992.421,620.031 966.006,646.446 966.006,679.031 C966.006,711.616 992.421,738.031 1025.006,738.031 C1057.591,738.031 1084.006,711.616 1084.006,679.031 C1084.006,646.446 1057.591,620.031 1025.006,620.031 Z" class="cls-2"/>
</svg>
